# xmcd
#
# Track frame offsets: 
#        150
#        15571
#        29086
#        47617
#        68563
#        96231
#        113212
#        130751
#        155571
#        167979
#        188334
#        212607
#        228975
#        241681
#        264353
#
# Disc length: 3773 seconds
#
# Revision: 0
# Processed by: cddbd v1.5.2PL0 Copyright (c) Steve Scherf et al.
# Submitted via: ExactAudioCopy v1.0b1
#
DISCID=bd0ebb0f
DTITLE=Eddie Burns - Snake Eyes 
DYEAR=2001
DGENRE=Electric Blues
TTITLE0=Snake Eyes
TTITLE1=Your Cash Ain't Nothin' But Trash
TTITLE2=Lonely Man Plea
TTITLE3=Go'head Angel
TTITLE4=Night Shift
TTITLE5=Papa Likes To Boogie
TTITLE6=I Call It Love
TTITLE7=Jail Time
TTITLE8=Treat Me Like I Treat You
TTITLE9=Goin' To New Orleans
TTITLE10=Lend Me Your Love
TTITLE11=Hastings Street Special
TTITLE12=For You My Love
TTITLE13=Hello Miss Jessie Lee
TTITLE14=Don't Let Money Change You
EXTD=
EXTT0=
EXTT1=
EXTT2=
EXTT3=
EXTT4=
EXTT5=
EXTT6=
EXTT7=
EXTT8=
EXTT9=
EXTT10=
EXTT11=
EXTT12=
EXTT13=
EXTT14=
PLAYORDER=
